<?xml version="1.0" standalone="no"?>
<!DOCTYPE svg PUBLIC "-//W3C//DTD SVG 1.1//EN"
"http://www.w3.org/Graphics/SVG/1.1/DTD/svg11.dtd">
<svg width="800" height="600" version="1.1" xmlns="http://www.w3.org/2000/svg"><g><rect x="0" y="0" width="800" height="600" fill="#f9f9f9" /><g transform="translate(40 40)"><g transform="translate(32 0)"><text x="0" y="0" fill="#333" font-family="Monaco" font-size="16">Colorized dots</text></g><g transform="translate(0 20)"><g transform="translate(32 0)"><g class="axis bottom"><g class="tick"><line x1="229.3333333333333333333333333" y1="0" x2="229.3333333333333333333333333" y2="482.0" stroke="#eee" stroke-width="1" /><text x="229.3333333333333333333333333" y="486.0" dy="1em" fill="#9c9c9c" text-anchor="middle" font-family="Monaco" font-size="14">100</text></g><g class="tick"><line x1="458.6666666666666666666666667" y1="0" x2="458.6666666666666666666666667" y2="482.0" stroke="#eee" stroke-width="1" /><text x="458.6666666666666666666666667" y="486.0" dy="1em" fill="#9c9c9c" text-anchor="middle" font-family="Monaco" font-size="14">200</text></g><g class="tick"><line x1="688" y1="0" x2="688" y2="482.0" stroke="#eee" stroke-width="1" /><text x="688" y="486.0" dy="1em" fill="#9c9c9c" text-anchor="middle" font-family="Monaco" font-size="14">300</text></g><g class="tick"><line x1="0" y1="0" x2="0" y2="482.0" stroke="#a8a8a8" stroke-width="1" /><text x="0" y="486.0" dy="1em" fill="#9c9c9c" text-anchor="middle" font-family="Monaco" font-size="14">0</text></g></g><g class="axis left"><g class="tick"><line x1="-4" y1="318.6666666666666666666666667" x2="688.0" y2="318.6666666666666666666666667" stroke="#eee" stroke-width="1" /><text x="-8" y="318.6666666666666666666666667" dy="0.32em" fill="#9c9c9c" text-anchor="end" font-family="Monaco" font-size="14">100</text></g><g class="tick"><line x1="-4" y1="159.3333333333333333333333333" x2="688.0" y2="159.3333333333333333333333333" stroke="#eee" stroke-width="1" /><text x="-8" y="159.3333333333333333333333333" dy="0.32em" fill="#9c9c9c" text-anchor="end" font-family="Monaco" font-size="14">200</text></g><g class="tick"><line x1="-4" y1="0" x2="688.0" y2="0" stroke="#eee" stroke-width="1" /><text x="-8" y="0" dy="0.32em" fill="#9c9c9c" text-anchor="end" font-family="Monaco" font-size="14">300</text></g><g class="tick"><line x1="-4" y1="478" x2="688.0" y2="478" stroke="#a8a8a8" stroke-width="1" /><text x="-8" y="478" dy="0.32em" fill="#9c9c9c" text-anchor="end" font-family="Monaco" font-size="14">0</text></g></g><g><g class="series dots"><circle cx="371.52" cy="352.1266666666666666666666667" r="3" fill="rgb(162, 79, 150)" /><circle cx="52.74666666666666666666666667" cy="251.7466666666666666666666667" r="3" fill="rgb(23, 142, 150)" /><circle cx="59.62666666666666666666666667" cy="313.8866666666666666666666667" r="3" fill="rgb(26, 103, 150)" /><circle cx="112.3733333333333333333333333" cy="326.6333333333333333333333333" r="3" fill="rgb(49, 95, 150)" /><circle cx="38.98666666666666666666666667" cy="272.46" r="3" fill="rgb(17, 129, 150)" /><circle cx="197.2266666666666666666666667" cy="321.8533333333333333333333333" r="3" fill="rgb(86, 98, 150)" /><circle cx="188.0533333333333333333333333" cy="304.3266666666666666666666667" r="3" fill="rgb(82, 109, 150)" /><circle cx="94.02666666666666666666666669" cy="441.3533333333333333333333333" r="3" fill="rgb(41, 23, 150)" /><circle cx="208.6933333333333333333333333" cy="94.0066666666666666666666667" r="3" fill="rgb(91, 241, 150)" /><circle cx="2.293333333333333333333333333" cy="92.4133333333333333333333333" r="3" fill="rgb(1, 242, 150)" /><circle cx="107.7866666666666666666666667" cy="334.6" r="3" fill="rgb(47, 90, 150)" /><circle cx="481.6" cy="474.8133333333333333333333333" r="3" fill="rgb(210, 2, 150)" /><circle cx="334.8266666666666666666666667" cy="299.5466666666666666666666667" r="3" fill="rgb(146, 112, 150)" /><circle cx="222.4533333333333333333333333" cy="170.4866666666666666666666667" r="3" fill="rgb(97, 193, 150)" /><circle cx="534.3466666666666666666666667" cy="380.8066666666666666666666667" r="3" fill="rgb(233, 61, 150)" /><circle cx="543.52" cy="280.4266666666666666666666667" r="3" fill="rgb(237, 124, 150)" /><circle cx="135.3066666666666666666666667" cy="240.5933333333333333333333333" r="3" fill="rgb(59, 149, 150)" /><circle cx="6.88" cy="404.7066666666666666666666667" r="3" fill="rgb(3, 46, 150)" /><circle cx="348.5866666666666666666666667" cy="208.7266666666666666666666667" r="3" fill="rgb(152, 169, 150)" /><circle cx="286.6666666666666666666666667" cy="86.04" r="3" fill="rgb(125, 246, 150)" /><circle cx="277.4933333333333333333333333" cy="229.44" r="3" fill="rgb(121, 156, 150)" /><circle cx="566.4533333333333333333333333" cy="312.2933333333333333333333333" r="3" fill="rgb(247, 104, 150)" /><circle cx="169.7066666666666666666666667" cy="430.2" r="3" fill="rgb(74, 30, 150)" /><circle cx="190.3466666666666666666666667" cy="95.6" r="3" fill="rgb(83, 240, 150)" /><circle cx="518.2933333333333333333333333" cy="434.98" r="3" fill="rgb(226, 27, 150)" /><circle cx="153.6533333333333333333333333" cy="398.3333333333333333333333333" r="3" fill="rgb(67, 50, 150)" /><circle cx="130.72" cy="229.44" r="3" fill="rgb(57, 156, 150)" /><circle cx="506.8266666666666666666666667" cy="323.4466666666666666666666667" r="3" fill="rgb(221, 97, 150)" /><circle cx="339.4133333333333333333333333" cy="98.7866666666666666666666667" r="3" fill="rgb(148, 238, 150)" /><circle cx="573.3333333333333333333333333" cy="218.2866666666666666666666667" r="3" fill="rgb(250, 163, 150)" /><circle cx="479.3066666666666666666666667" cy="371.2466666666666666666666667" r="3" fill="rgb(209, 67, 150)" /><circle cx="32.10666666666666666666666667" cy="90.82" r="3" fill="rgb(14, 243, 150)" /><circle cx="126.1333333333333333333333333" cy="194.3866666666666666666666667" r="3" fill="rgb(55, 178, 150)" /><circle cx="387.5733333333333333333333333" cy="175.2666666666666666666666667" r="3" fill="rgb(169, 190, 150)" /><circle cx="477.0133333333333333333333333" cy="342.5666666666666666666666667" r="3" fill="rgb(208, 85, 150)" /><circle cx="353.1733333333333333333333333" cy="395.1466666666666666666666667" r="3" fill="rgb(154, 52, 150)" /><circle cx="286.6666666666666666666666667" cy="366.4666666666666666666666667" r="3" fill="rgb(125, 70, 150)" /><circle cx="201.8133333333333333333333333" cy="101.9733333333333333333333333" r="3" fill="rgb(88, 236, 150)" /><circle cx="9.173333333333333333333333331" cy="411.08" r="3" fill="rgb(4, 42, 150)" /><circle cx="371.52" cy="183.2333333333333333333333333" r="3" fill="rgb(162, 185, 150)" /><circle cx="116.96" cy="385.5866666666666666666666667" r="3" fill="rgb(51, 58, 150)" /><circle cx="387.5733333333333333333333333" cy="399.9266666666666666666666667" r="3" fill="rgb(169, 49, 150)" /><circle cx="442.6133333333333333333333333" cy="331.4133333333333333333333333" r="3" fill="rgb(193, 92, 150)" /><circle cx="243.0933333333333333333333333" cy="216.6933333333333333333333333" r="3" fill="rgb(106, 164, 150)" /><circle cx="153.6533333333333333333333333" cy="108.3466666666666666666666667" r="3" fill="rgb(67, 232, 150)" /><circle cx="98.61333333333333333333333331" cy="299.5466666666666666666666667" r="3" fill="rgb(43, 112, 150)" /><circle cx="160.5333333333333333333333333" cy="312.2933333333333333333333333" r="3" fill="rgb(70, 104, 150)" /><circle cx="247.68" cy="157.74" r="3" fill="rgb(108, 201, 150)" /><circle cx="32.10666666666666666666666667" cy="223.0666666666666666666666667" r="3" fill="rgb(14, 160, 150)" /><circle cx="474.72" cy="401.52" r="3" fill="rgb(207, 48, 150)" /><circle cx="571.04" cy="231.0333333333333333333333333" r="3" fill="rgb(249, 155, 150)" /><circle cx="4.586666666666666666666666667" cy="202.3533333333333333333333333" r="3" fill="rgb(2, 173, 150)" /><circle cx="431.1466666666666666666666667" cy="436.5733333333333333333333333" r="3" fill="rgb(188, 26, 150)" /><circle cx="151.36" cy="144.9933333333333333333333333" r="3" fill="rgb(66, 209, 150)" /><circle cx="137.6" cy="310.70" r="3" fill="rgb(60, 105, 150)" /><circle cx="431.1466666666666666666666667" cy="253.34" r="3" fill="rgb(188, 141, 150)" /><circle cx="309.60" cy="105.16" r="3" fill="rgb(135, 234, 150)" /><circle cx="178.88" cy="398.3333333333333333333333333" r="3" fill="rgb(78, 50, 150)" /><circle cx="545.8133333333333333333333333" cy="450.9133333333333333333333333" r="3" fill="rgb(238, 17, 150)" /><circle cx="431.1466666666666666666666667" cy="363.28" r="3" fill="rgb(188, 72, 150)" /><circle cx="142.1866666666666666666666667" cy="337.7866666666666666666666667" r="3" fill="rgb(62, 88, 150)" /><circle cx="87.14666666666666666666666669" cy="259.7133333333333333333333333" r="3" fill="rgb(38, 137, 150)" /><circle cx="552.6933333333333333333333333" cy="473.22" r="3" fill="rgb(241, 3, 150)" /><circle cx="0" cy="291.58" r="3" fill="rgb(0, 117, 150)" /><circle cx="477.0133333333333333333333333" cy="117.9066666666666666666666667" r="3" fill="rgb(208, 226, 150)" /><circle cx="208.6933333333333333333333333" cy="151.3666666666666666666666667" r="3" fill="rgb(91, 205, 150)" /><circle cx="160.5333333333333333333333333" cy="151.3666666666666666666666667" r="3" fill="rgb(70, 205, 150)" /><circle cx="16.05333333333333333333333333" cy="86.04" r="3" fill="rgb(7, 246, 150)" /><circle cx="6.88" cy="103.5666666666666666666666667" r="3" fill="rgb(3, 235, 150)" /><circle cx="499.9466666666666666666666667" cy="358.50" r="3" fill="rgb(218, 75, 150)" /><circle cx="206.4" cy="379.2133333333333333333333333" r="3" fill="rgb(90, 62, 150)" /><circle cx="444.9066666666666666666666667" cy="434.98" r="3" fill="rgb(194, 27, 150)" /><circle cx="87.14666666666666666666666669" cy="130.6533333333333333333333333" r="3" fill="rgb(38, 218, 150)" /><circle cx="472.4266666666666666666666667" cy="423.8266666666666666666666667" r="3" fill="rgb(206, 34, 150)" /><circle cx="217.8666666666666666666666667" cy="317.0733333333333333333333333" r="3" fill="rgb(95, 101, 150)" /><circle cx="215.5733333333333333333333333" cy="331.4133333333333333333333333" r="3" fill="rgb(94, 92, 150)" /><circle cx="506.8266666666666666666666667" cy="254.9333333333333333333333333" r="3" fill="rgb(221, 140, 150)" /><circle cx="495.36" cy="227.8466666666666666666666667" r="3" fill="rgb(216, 157, 150)" /><circle cx="465.5466666666666666666666667" cy="415.86" r="3" fill="rgb(203, 39, 150)" /><circle cx="194.9333333333333333333333333" cy="237.4066666666666666666666667" r="3" fill="rgb(85, 151, 150)" /><circle cx="288.96" cy="116.3133333333333333333333333" r="3" fill="rgb(126, 227, 150)" /><circle cx="29.81333333333333333333333333" cy="274.0533333333333333333333333" r="3" fill="rgb(13, 128, 150)" /><circle cx="50.45333333333333333333333333" cy="328.2266666666666666666666667" r="3" fill="rgb(22, 94, 150)" /><circle cx="75.68" cy="95.6" r="3" fill="rgb(33, 240, 150)" /><circle cx="123.84" cy="101.9733333333333333333333333" r="3" fill="rgb(54, 236, 150)" /><circle cx="64.21333333333333333333333333" cy="192.7933333333333333333333333" r="3" fill="rgb(28, 179, 150)" /><circle cx="259.1466666666666666666666667" cy="350.5333333333333333333333333" r="3" fill="rgb(113, 80, 150)" /><circle cx="61.92" cy="114.72" r="3" fill="rgb(27, 228, 150)" /><circle cx="355.4666666666666666666666667" cy="223.0666666666666666666666667" r="3" fill="rgb(155, 160, 150)" /><circle cx="396.7466666666666666666666667" cy="374.4333333333333333333333333" r="3" fill="rgb(173, 65, 150)" /><circle cx="566.4533333333333333333333333" cy="391.96" r="3" fill="rgb(247, 54, 150)" /><circle cx="394.4533333333333333333333333" cy="455.6933333333333333333333333" r="3" fill="rgb(172, 14, 150)" /><circle cx="126.1333333333333333333333333" cy="210.32" r="3" fill="rgb(55, 168, 150)" /><circle cx="87.14666666666666666666666669" cy="264.4933333333333333333333333" r="3" fill="rgb(38, 134, 150)" /><circle cx="479.3066666666666666666666667" cy="205.54" r="3" fill="rgb(209, 171, 150)" /><circle cx="275.2" cy="117.9066666666666666666666667" r="3" fill="rgb(120, 226, 150)" /><circle cx="162.8266666666666666666666667" cy="417.4533333333333333333333333" r="3" fill="rgb(71, 38, 150)" /><circle cx="334.8266666666666666666666667" cy="127.4666666666666666666666667" r="3" fill="rgb(146, 220, 150)" /><circle cx="29.81333333333333333333333333" cy="363.28" r="3" fill="rgb(13, 72, 150)" /><circle cx="240.80" cy="460.4733333333333333333333333" r="3" fill="rgb(105, 11, 150)" /></g></g></g></g></g></g></svg>